<mxfile host="app.diagrams.net" modified="2024-04-25T23:50:12.162Z" agent="Mozilla/5.0 (Windows NT 10.0; Win64; x64) AppleWebKit/537.36 (KHTML, like Gecko) Chrome/124.0.0.0 Safari/537.36" etag="qv_okOySdHromxMdPsOr" version="24.3.0" type="github">
  <diagram id="R2lEEEUBdFMjLlhIrx00" name="Page-1">
    <mxGraphModel dx="880" dy="468" grid="1" gridSize="10" guides="1" tooltips="1" connect="1" arrows="1" fold="1" page="1" pageScale="1" pageWidth="850" pageHeight="1100" math="0" shadow="0" extFonts="Permanent Marker^https://fonts.googleapis.com/css?family=Permanent+Marker">
      <root>
        <mxCell id="0" />
        <mxCell id="1" parent="0" />
        <mxCell id="cjcuxVu1QyEe4Vjh85VK-1" value="Fabrica" style="whiteSpace=wrap;html=1;align=center;" vertex="1" parent="1">
          <mxGeometry x="375" y="170" width="100" height="40" as="geometry" />
        </mxCell>
        <mxCell id="cjcuxVu1QyEe4Vjh85VK-23" value="" style="edgeStyle=orthogonalEdgeStyle;rounded=0;orthogonalLoop=1;jettySize=auto;html=1;endArrow=none;endFill=0;" edge="1" parent="1" source="cjcuxVu1QyEe4Vjh85VK-2" target="cjcuxVu1QyEe4Vjh85VK-19">
          <mxGeometry relative="1" as="geometry" />
        </mxCell>
        <mxCell id="cjcuxVu1QyEe4Vjh85VK-2" value="Célula de Fabricación" style="whiteSpace=wrap;html=1;align=center;" vertex="1" parent="1">
          <mxGeometry x="260" y="520" width="100" height="40" as="geometry" />
        </mxCell>
        <mxCell id="cjcuxVu1QyEe4Vjh85VK-36" style="edgeStyle=orthogonalEdgeStyle;rounded=0;orthogonalLoop=1;jettySize=auto;html=1;exitX=0.5;exitY=0;exitDx=0;exitDy=0;entryX=0;entryY=0.5;entryDx=0;entryDy=0;endArrow=none;endFill=0;" edge="1" parent="1" source="cjcuxVu1QyEe4Vjh85VK-3" target="cjcuxVu1QyEe4Vjh85VK-35">
          <mxGeometry relative="1" as="geometry" />
        </mxCell>
        <mxCell id="cjcuxVu1QyEe4Vjh85VK-3" value="Operario" style="whiteSpace=wrap;html=1;align=center;" vertex="1" parent="1">
          <mxGeometry x="475" y="340" width="100" height="40" as="geometry" />
        </mxCell>
        <mxCell id="cjcuxVu1QyEe4Vjh85VK-4" value="Taller" style="whiteSpace=wrap;html=1;align=center;" vertex="1" parent="1">
          <mxGeometry x="110" y="320" width="100" height="40" as="geometry" />
        </mxCell>
        <mxCell id="cjcuxVu1QyEe4Vjh85VK-5" value="Maquina" style="whiteSpace=wrap;html=1;align=center;" vertex="1" parent="1">
          <mxGeometry x="580" y="530" width="100" height="40" as="geometry" />
        </mxCell>
        <mxCell id="cjcuxVu1QyEe4Vjh85VK-6" value="Compone" style="shape=rhombus;perimeter=rhombusPerimeter;whiteSpace=wrap;html=1;align=center;" vertex="1" parent="1">
          <mxGeometry x="250" y="220" width="75" height="40" as="geometry" />
        </mxCell>
        <mxCell id="cjcuxVu1QyEe4Vjh85VK-7" value="" style="endArrow=none;html=1;rounded=0;entryX=0;entryY=0.5;entryDx=0;entryDy=0;exitX=1;exitY=0;exitDx=0;exitDy=0;" edge="1" parent="1" source="cjcuxVu1QyEe4Vjh85VK-6" target="cjcuxVu1QyEe4Vjh85VK-1">
          <mxGeometry relative="1" as="geometry">
            <mxPoint x="170" y="160" as="sourcePoint" />
            <mxPoint x="330" y="160" as="targetPoint" />
          </mxGeometry>
        </mxCell>
        <mxCell id="cjcuxVu1QyEe4Vjh85VK-12" value="" style="endArrow=none;html=1;rounded=0;entryX=0.75;entryY=0;entryDx=0;entryDy=0;exitX=0;exitY=1;exitDx=0;exitDy=0;" edge="1" parent="1" source="cjcuxVu1QyEe4Vjh85VK-6" target="cjcuxVu1QyEe4Vjh85VK-4">
          <mxGeometry relative="1" as="geometry">
            <mxPoint x="140" y="290" as="sourcePoint" />
            <mxPoint x="300" y="290" as="targetPoint" />
          </mxGeometry>
        </mxCell>
        <mxCell id="cjcuxVu1QyEe4Vjh85VK-13" value="1...N" style="resizable=0;html=1;whiteSpace=wrap;align=right;verticalAlign=bottom;" connectable="0" vertex="1" parent="cjcuxVu1QyEe4Vjh85VK-12">
          <mxGeometry x="1" relative="1" as="geometry">
            <mxPoint x="-5" y="-10" as="offset" />
          </mxGeometry>
        </mxCell>
        <mxCell id="cjcuxVu1QyEe4Vjh85VK-14" value="Posee" style="shape=rhombus;perimeter=rhombusPerimeter;whiteSpace=wrap;html=1;align=center;" vertex="1" parent="1">
          <mxGeometry x="160" y="420" width="100" height="50" as="geometry" />
        </mxCell>
        <mxCell id="cjcuxVu1QyEe4Vjh85VK-15" value="" style="endArrow=none;html=1;rounded=0;entryX=0;entryY=0.5;entryDx=0;entryDy=0;exitX=1;exitY=1;exitDx=0;exitDy=0;" edge="1" parent="1" source="cjcuxVu1QyEe4Vjh85VK-14" target="cjcuxVu1QyEe4Vjh85VK-2">
          <mxGeometry relative="1" as="geometry">
            <mxPoint x="90" y="530" as="sourcePoint" />
            <mxPoint x="250" y="530" as="targetPoint" />
          </mxGeometry>
        </mxCell>
        <mxCell id="cjcuxVu1QyEe4Vjh85VK-16" value="1...N" style="resizable=0;html=1;whiteSpace=wrap;align=right;verticalAlign=bottom;" connectable="0" vertex="1" parent="cjcuxVu1QyEe4Vjh85VK-15">
          <mxGeometry x="1" relative="1" as="geometry">
            <mxPoint x="-10" y="10" as="offset" />
          </mxGeometry>
        </mxCell>
        <mxCell id="cjcuxVu1QyEe4Vjh85VK-17" value="" style="endArrow=none;html=1;rounded=0;entryX=0.5;entryY=1;entryDx=0;entryDy=0;exitX=0;exitY=0;exitDx=0;exitDy=0;" edge="1" parent="1" source="cjcuxVu1QyEe4Vjh85VK-14" target="cjcuxVu1QyEe4Vjh85VK-4">
          <mxGeometry relative="1" as="geometry">
            <mxPoint x="40" y="400" as="sourcePoint" />
            <mxPoint x="200" y="400" as="targetPoint" />
          </mxGeometry>
        </mxCell>
        <mxCell id="cjcuxVu1QyEe4Vjh85VK-18" value="1" style="resizable=0;html=1;whiteSpace=wrap;align=right;verticalAlign=bottom;" connectable="0" vertex="1" parent="cjcuxVu1QyEe4Vjh85VK-17">
          <mxGeometry x="1" relative="1" as="geometry">
            <mxPoint y="20" as="offset" />
          </mxGeometry>
        </mxCell>
        <mxCell id="cjcuxVu1QyEe4Vjh85VK-19" value="Contiene" style="shape=rhombus;perimeter=rhombusPerimeter;whiteSpace=wrap;html=1;align=center;" vertex="1" parent="1">
          <mxGeometry x="410" y="520" width="80" height="40" as="geometry" />
        </mxCell>
        <mxCell id="cjcuxVu1QyEe4Vjh85VK-21" value="" style="endArrow=none;html=1;rounded=0;entryX=0;entryY=0.5;entryDx=0;entryDy=0;exitX=1;exitY=0.5;exitDx=0;exitDy=0;" edge="1" parent="1" source="cjcuxVu1QyEe4Vjh85VK-19" target="cjcuxVu1QyEe4Vjh85VK-5">
          <mxGeometry relative="1" as="geometry">
            <mxPoint x="410" y="610" as="sourcePoint" />
            <mxPoint x="570" y="610" as="targetPoint" />
          </mxGeometry>
        </mxCell>
        <mxCell id="cjcuxVu1QyEe4Vjh85VK-22" value="1...N" style="resizable=0;html=1;whiteSpace=wrap;align=right;verticalAlign=bottom;" connectable="0" vertex="1" parent="cjcuxVu1QyEe4Vjh85VK-21">
          <mxGeometry x="1" relative="1" as="geometry">
            <mxPoint x="-5" y="-10" as="offset" />
          </mxGeometry>
        </mxCell>
        <mxCell id="cjcuxVu1QyEe4Vjh85VK-29" value="" style="endArrow=none;html=1;rounded=0;entryX=0.75;entryY=0;entryDx=0;entryDy=0;exitX=0;exitY=1;exitDx=0;exitDy=0;" edge="1" parent="1" source="cjcuxVu1QyEe4Vjh85VK-31" target="cjcuxVu1QyEe4Vjh85VK-2">
          <mxGeometry relative="1" as="geometry">
            <mxPoint x="400" y="470" as="sourcePoint" />
            <mxPoint x="450" y="440" as="targetPoint" />
          </mxGeometry>
        </mxCell>
        <mxCell id="cjcuxVu1QyEe4Vjh85VK-30" value="1...N" style="resizable=0;html=1;whiteSpace=wrap;align=right;verticalAlign=bottom;" connectable="0" vertex="1" parent="cjcuxVu1QyEe4Vjh85VK-29">
          <mxGeometry x="1" relative="1" as="geometry">
            <mxPoint x="5" as="offset" />
          </mxGeometry>
        </mxCell>
        <mxCell id="cjcuxVu1QyEe4Vjh85VK-31" value="Asignado" style="shape=rhombus;perimeter=rhombusPerimeter;whiteSpace=wrap;html=1;align=center;" vertex="1" parent="1">
          <mxGeometry x="380" y="415" width="120" height="60" as="geometry" />
        </mxCell>
        <mxCell id="cjcuxVu1QyEe4Vjh85VK-33" value="" style="endArrow=none;html=1;rounded=0;entryX=0.25;entryY=1;entryDx=0;entryDy=0;exitX=1;exitY=0;exitDx=0;exitDy=0;" edge="1" parent="1" source="cjcuxVu1QyEe4Vjh85VK-31" target="cjcuxVu1QyEe4Vjh85VK-3">
          <mxGeometry relative="1" as="geometry">
            <mxPoint x="510" y="430" as="sourcePoint" />
            <mxPoint x="670" y="430" as="targetPoint" />
          </mxGeometry>
        </mxCell>
        <mxCell id="cjcuxVu1QyEe4Vjh85VK-34" value="1" style="resizable=0;html=1;whiteSpace=wrap;align=right;verticalAlign=bottom;" connectable="0" vertex="1" parent="cjcuxVu1QyEe4Vjh85VK-33">
          <mxGeometry x="1" relative="1" as="geometry">
            <mxPoint x="5" y="20" as="offset" />
          </mxGeometry>
        </mxCell>
        <mxCell id="cjcuxVu1QyEe4Vjh85VK-37" style="edgeStyle=orthogonalEdgeStyle;rounded=0;orthogonalLoop=1;jettySize=auto;html=1;exitX=0.5;exitY=1;exitDx=0;exitDy=0;entryX=1;entryY=0.5;entryDx=0;entryDy=0;endArrow=none;endFill=0;" edge="1" parent="1" source="cjcuxVu1QyEe4Vjh85VK-35" target="cjcuxVu1QyEe4Vjh85VK-3">
          <mxGeometry relative="1" as="geometry" />
        </mxCell>
        <mxCell id="cjcuxVu1QyEe4Vjh85VK-35" value="Es Responsable" style="shape=rhombus;perimeter=rhombusPerimeter;whiteSpace=wrap;html=1;align=center;" vertex="1" parent="1">
          <mxGeometry x="560" y="260" width="110" height="70" as="geometry" />
        </mxCell>
        <mxCell id="cjcuxVu1QyEe4Vjh85VK-38" value="1" style="text;html=1;align=center;verticalAlign=middle;resizable=0;points=[];autosize=1;strokeColor=none;fillColor=none;" vertex="1" parent="1">
          <mxGeometry x="355" y="538" width="30" height="30" as="geometry" />
        </mxCell>
      </root>
    </mxGraphModel>
  </diagram>
</mxfile>
